<?xml version="1.0" standalone="no"?>
<!DOCTYPE svg PUBLIC "-//W3C//DTD SVG 20010904//EN"
 "http://www.w3.org/TR/2001/REC-SVG-20010904/DTD/svg10.dtd">
<svg version="1.0" xmlns="http://www.w3.org/2000/svg"
 width="300.000000pt" height="229.000000pt" viewBox="0 0 300.000000 229.000000"
 preserveAspectRatio="xMidYMid meet">
<metadata>
Created by potrace 1.10, written by Peter Selinger 2001-2011
</metadata>
<g transform="translate(0.000000,229.000000) scale(0.050000,-0.050000)"
fill="#000000" stroke="none">
<path d="M2801 4456 c-44 -22 -81 -52 -81 -66 0 -25 -55 -59 -84 -53 -8 1 -10
-10 -4 -26 16 -41 -10 -77 -39 -55 -65 51 -127 44 -180 -20 -29 -35 -58 -57
-66 -50 -14 15 -67 -76 -67 -116 0 -14 -18 -21 -45 -17 -69 11 -194 -121 -200
-213 -2 -22 -11 -40 -20 -40 -18 0 -1 -155 21 -189 6 -11 10 -44 8 -74 -3 -30
5 -60 16 -67 38 -23 23 -74 -18 -61 -46 15 -136 -66 -154 -140 -23 -90 34
-207 105 -217 27 -4 39 -26 43 -84 4 -42 16 -88 27 -101 13 -16 9 -29 -13 -42
-59 -33 -59 -140 -1 -216 42 -55 48 -76 32 -107 -27 -50 57 -122 140 -122 176
0 341 90 258 140 -16 10 -27 79 -31 193 -4 111 0 158 10 126 27 -83 64 -143
130 -209 34 -34 99 -103 144 -153 l82 -91 -222 -26 c-245 -28 -337 -37 -412
-39 -47 -1 -57 -21 -139 -276 -49 -151 -104 -306 -123 -345 -19 -38 -72 -151
-118 -250 -45 -99 -109 -234 -142 -300 -32 -66 -58 -143 -58 -172 0 -70 -16
-81 -78 -50 -28 15 -169 65 -312 111 -143 46 -287 93 -320 104 -33 11 -71 21
-85 22 -14 1 -25 8 -25 15 0 17 -186 60 -260 60 -81 0 -91 31 -23 71 88 53
136 144 96 184 -35 35 -93 6 -93 -47 0 -77 -276 -188 -350 -141 -83 52 -155
-25 -80 -87 33 -27 190 -41 190 -16 0 22 75 20 83 -2 4 -11 48 -24 97 -31 103
-14 305 -72 320 -92 11 -14 104 -41 178 -50 26 -3 56 -15 67 -26 11 -11 32
-15 46 -10 14 6 49 -5 76 -23 28 -18 56 -32 62 -32 6 1 16 1 21 0 6 -2 19 -5
30 -8 11 -3 22 -7 25 -9 3 -2 19 -7 35 -12 97 -24 213 -76 236 -105 40 -53 85
-8 149 148 31 76 69 166 85 201 17 35 30 70 30 77 0 8 39 97 88 197 48 101
110 237 138 303 28 66 65 153 82 193 18 40 32 83 32 95 0 60 38 11 50 -63 15
-96 46 -208 72 -260 10 -19 18 -52 18 -74 0 -21 9 -44 20 -51 12 -7 15 -21 9
-31 -6 -11 -4 -30 4 -44 19 -30 25 -53 47 -185 9 -55 25 -124 37 -153 11 -29
14 -60 7 -68 -8 -9 -3 -9 10 -2 30 18 52 -19 56 -96 1 -33 14 -88 29 -121 35
-79 33 -470 -2 -534 -14 -25 -27 -50 -28 -56 -1 -5 -13 -35 -26 -66 -13 -31
-23 -74 -23 -95 0 -22 -8 -39 -18 -39 -9 0 -22 -19 -28 -41 -9 -35 -3 -40 41
-35 48 5 59 25 114 196 l62 190 168 -7 c108 -4 185 -18 215 -38 38 -24 81 -28
218 -17 210 17 228 24 228 84 0 49 232 75 290 33 33 -25 90 -145 90 -191 0
-78 85 -254 122 -254 31 0 32 9 14 65 -11 36 -32 105 -47 155 -15 50 -48 150
-75 223 -64 180 -24 392 163 863 16 42 32 96 35 120 11 88 49 285 61 314 7 17
16 46 20 66 4 20 31 110 61 200 l55 164 23 -180 c28 -213 67 -484 77 -540 4
-22 13 -67 19 -100 7 -33 17 -91 22 -130 5 -38 19 -101 30 -140 11 -38 20 -94
20 -124 0 -72 26 -84 115 -53 41 14 85 23 97 21 12 -2 117 27 233 66 117 38
232 70 256 70 24 0 85 13 136 29 75 23 174 52 283 81 337 90 420 129 420 192
0 50 -49 48 -160 -5 -171 -83 -175 -84 -240 -57 -34 14 -57 30 -51 36 19 18
-33 64 -72 64 -66 0 -70 -62 -7 -112 l57 -45 -48 -11 c-228 -49 -523 -121
-589 -143 -120 -40 -314 -92 -319 -85 -19 27 -50 144 -60 226 -22 181 -34 240
-53 247 -10 3 -18 30 -18 60 0 29 -18 163 -40 298 -22 134 -43 314 -46 400
l-6 155 -99 10 c-54 6 -131 5 -170 -2 -39 -6 -88 -5 -109 2 -21 7 -194 10
-384 6 -380 -9 -384 -8 -261 54 110 55 170 108 254 225 82 115 92 111 55 -28
-15 -59 -24 -118 -19 -131 14 -42 65 -4 65 48 l0 50 71 -42 c71 -42 71 -42
113 -2 55 51 71 35 29 -28 -43 -67 -4 -90 47 -29 21 26 39 54 39 63 1 9 9 11
19 5 25 -15 5 211 -21 242 -14 18 3 39 62 78 87 58 97 93 53 179 -17 32 -24
82 -18 120 12 76 -22 109 -54 51 -30 -58 -63 -51 -48 9 19 78 -9 230 -43 230
-16 0 -29 -18 -29 -40 0 -44 -21 -51 -53 -19 -15 15 -36 4 -72 -38 -36 -43
-56 -54 -72 -38 -57 57 -84 -186 -29 -264 24 -34 27 -51 10 -56 -13 -5 -24
-29 -24 -54 0 -105 -226 -374 -407 -484 -117 -72 -345 -47 -393 43 -15 28 -34
50 -42 50 -80 0 -249 267 -271 430 -13 95 -57 139 -88 88 -11 -17 -6 -39 12
-59 51 -56 39 -166 -15 -137 -62 33 -170 45 -185 19 -22 -35 -51 -24 -51 19 0
45 110 123 150 107 14 -5 30 5 37 22 6 17 4 31 -6 31 -37 0 -81 65 -81 118 0
50 5 54 65 47 48 -6 58 -3 36 12 -38 27 -17 48 38 40 43 -7 43 -8 -9 -77 -34
-46 -43 -72 -27 -78 32 -10 111 91 139 178 12 39 35 90 51 115 32 51 13 166
-31 181 -19 6 -23 -14 -16 -83 12 -109 8 -115 -67 -87 -49 19 -67 16 -118 -22
-56 -42 -61 -42 -61 -8 0 78 46 110 126 88 45 -13 78 -13 85 -2 16 26 -10 101
-32 88 -25 -16 -119 11 -119 34 0 12 23 16 50 11 61 -11 67 17 8 36 -38 12
-39 16 -12 44 28 28 39 27 114 -10 l82 -41 19 49 c51 134 -7 232 -137 232 -46
0 -84 8 -84 17 0 36 87 61 170 49 99 -15 146 35 65 69 -90 37 -149 96 -111
111 19 7 55 -2 80 -19 70 -50 132 -42 122 14 -6 27 4 57 22 73 28 23 31 19 20
-36 -20 -99 -1 -125 71 -100 34 11 61 29 61 39 0 38 61 15 117 -45 46 -50 79
-64 161 -72 112 -11 111 -11 81 -66 -45 -85 -300 -31 -339 72 -23 59 -81 46
-79 -18 2 -91 298 -210 372 -150 16 13 28 7 36 -20 18 -56 140 -144 218 -156
65 -11 66 -13 58 -98 -8 -80 -2 -93 76 -173 47 -47 78 -74 70 -60 -10 18 -1
30 27 38 41 10 60 46 25 46 -10 0 -13 22 -8 50 6 30 18 44 32 36 17 -10 17 -6
2 15 -36 50 -38 167 -2 153 30 -11 66 17 73 56 11 65 32 -11 48 -169 7 -75 44
-106 56 -47 14 77 -16 271 -47 293 -41 30 -64 106 -38 122 62 39 163 -94 168
-221 3 -96 24 -114 51 -43 60 163 -142 421 -238 304 -23 -27 -30 -26 -64 5
-24 21 -72 35 -124 35 -47 1 -100 13 -117 27 -32 26 -88 36 -125 22 -22 -9
-30 6 -30 52 0 44 113 38 181 -10 34 -25 61 -33 69 -20 27 44 -55 96 -176 112
-30 4 -76 30 -102 58 -30 32 -59 46 -80 38 -17 -7 -32 -2 -32 10 0 12 -9 22
-20 22 -11 0 -38 18 -60 40 -22 22 -65 41 -95 42 -30 0 -70 4 -89 8 -18 3 -70
-12 -115 -34z m199 -66 c0 -36 33 -40 45 -5 7 19 16 19 42 -3 32 -26 32 -30 0
-65 -32 -36 -30 -37 60 -24 90 12 131 -14 63 -40 -16 -7 -30 -27 -30 -46 0
-27 5 -30 24 -11 37 37 56 29 56 -26 0 -55 -16 -59 -124 -29 -93 25 -146 92
-110 136 20 25 18 28 -9 18 -20 -7 -38 -1 -44 15 -6 15 -43 34 -83 41 -65 12
-68 16 -36 41 50 37 146 36 146 -2z m-92 -82 c40 -15 22 -48 -27 -48 -20 0
-47 -13 -61 -30 -37 -45 -65 -36 -49 15 22 69 67 90 137 63z m544 -262 c29
-32 47 -72 44 -99 -4 -29 17 -69 60 -113 54 -56 61 -71 35 -81 -17 -6 -31 -4
-31 5 0 10 -40 23 -89 31 -109 16 -242 146 -223 218 6 24 12 49 12 57 0 12 49
26 116 33 14 2 48 -21 76 -51z m236 -86 c60 -151 28 -221 -58 -129 -27 30 -43
63 -36 75 7 12 1 16 -16 10 -21 -8 -29 3 -29 41 2 112 95 113 139 3z m-1368
-39 c0 -10 -10 -25 -21 -32 -38 -23 -54 -97 -41 -189 9 -60 3 -109 -15 -146
-15 -32 -29 -79 -30 -105 -4 -59 -44 -64 -73 -9 -17 33 -15 40 12 40 31 0 31
3 -2 39 -33 38 -33 43 -1 92 38 58 31 88 -9 39 -42 -50 -60 -34 -60 54 0 78 2
81 30 45 29 -36 30 -34 25 41 -5 73 1 83 65 115 78 39 120 45 120 16z m212
-82 c11 -57 9 -65 -13 -44 -34 32 -163 33 -195 1 -17 -17 -24 -17 -24 -2 0 54
28 86 73 86 27 0 44 8 38 19 -13 20 71 40 94 21 8 -6 20 -42 27 -81z m1088
-159 c20 -37 14 -132 -9 -156 -22 -22 -70 67 -70 131 -1 75 45 89 79 25z
m-1166 -267 c-9 -28 -130 -64 -149 -44 -25 24 71 88 116 77 22 -6 37 -21 33
-33z m1393 -39 c16 16 16 -90 0 -150 -17 -64 -90 -51 -115 20 -28 79 14 165
65 137 21 -11 43 -14 50 -7z m-1656 -36 c7 -12 -10 -46 -38 -75 -29 -30 -58
-83 -65 -119 -22 -109 -128 -38 -128 85 0 99 184 186 231 109z m1557 -198 c16
0 42 -5 58 -11 16 -6 43 2 59 19 59 59 89 -13 49 -120 -18 -49 -24 -84 -13
-78 29 19 23 -22 -8 -48 -23 -18 -30 -7 -41 58 -18 113 -60 105 -47 -10 6 -49
2 -90 -7 -90 -10 0 -18 14 -18 32 0 54 -47 19 -65 -48 -22 -86 -64 -85 -47 1
25 125 24 225 -2 264 -14 22 -26 67 -26 100 l0 61 40 -65 c22 -36 52 -65 68
-65z m-1528 49 c0 -16 -18 -29 -41 -29 -34 0 -37 6 -19 41 23 43 60 36 60 -12z
m170 -330 c6 -9 -12 -34 -40 -55 -80 -63 -65 -188 35 -298 46 -50 40 -55 -91
-73 -67 -10 -78 -5 -95 39 -34 89 -24 128 31 128 63 0 64 27 3 55 -100 45 -79
146 31 155 33 3 70 16 83 30 18 19 5 21 -62 10 -53 -8 -85 -6 -85 7 0 38 167
40 190 2z m1383 -68 c-6 -15 -1 -32 11 -36 26 -8 -5 -119 -36 -129 -67 -22
-97 50 -43 105 30 30 55 62 55 72 0 9 5 17 12 17 7 0 7 -13 1 -29z m-1647 -66
c6 -30 17 -71 25 -90 21 -56 -19 -40 -53 20 -31 54 -30 125 1 125 9 0 21 -25
27 -55z m1463 -393 c318 -7 583 -17 589 -23 10 -11 -50 -189 -92 -269 -14 -27
-26 -66 -26 -86 0 -20 -18 -79 -39 -130 -22 -52 -49 -152 -61 -224 -19 -112
-121 -447 -230 -760 l-31 -90 -124 3 c-151 4 -169 -5 -119 -60 47 -53 75 -153
42 -153 -13 0 -36 -16 -50 -35 -23 -31 -27 -21 -29 75 -1 61 -8 146 -16 190
l-14 80 -209 2 c-226 3 -280 -11 -280 -73 0 -21 -7 -39 -15 -40 -8 0 -62 -6
-120 -12 -95 -9 -106 -6 -123 36 -44 107 -147 440 -193 627 -28 109 -76 276
-107 370 -166 499 -168 509 -84 490 33 -7 64 -3 71 9 7 11 65 22 127 22 63 1
209 18 324 37 116 20 215 34 220 31 6 -3 270 -10 589 -17z m-286 -1562 c53
-20 24 -348 -32 -361 -184 -47 -325 1 -301 101 5 22 10 92 10 155 l0 115 148
0 c82 0 161 -5 175 -10z"/>
<path d="M3060 602 c0 -139 70 -188 167 -117 79 58 23 195 -80 195 l-87 0 0
-78z m140 -33 c0 -36 -11 -49 -40 -49 -45 0 -55 57 -17 95 32 32 57 12 57 -46z"/>
<path d="M3403 4399 c-68 -28 -41 -69 47 -71 74 -1 117 -33 170 -126 26 -46
66 -1 46 52 -37 97 -182 176 -263 145z"/>
<path d="M2687 4034 c-9 -15 -30 -34 -47 -41 -17 -8 -10 -10 15 -5 25 4 45 0
45 -10 0 -25 95 -23 110 2 7 11 1 20 -12 20 -14 0 -40 14 -60 31 -29 27 -37
28 -51 3z"/>
<path d="M2810 3680 c-17 -28 -22 -394 -6 -411 41 -40 76 24 76 138 0 68 6
142 12 164 14 53 -58 149 -82 109z"/>
<path d="M4080 3664 c0 -9 -31 -12 -70 -8 -80 10 -96 -25 -20 -44 64 -16 68
-112 10 -207 -47 -78 -4 -95 49 -20 18 25 38 41 46 35 20 -14 31 136 13 177
-8 18 -12 44 -10 58 2 14 -1 25 -7 25 -6 0 -11 -7 -11 -16z"/>
<path d="M3190 3615 c-5 -25 -8 -63 -7 -85 2 -22 -2 -80 -10 -130 -14 -98 6
-152 52 -135 65 25 80 395 15 395 -24 0 -43 -17 -50 -45z"/>
<path d="M2945 3227 c-42 -17 -28 -42 33 -63 73 -26 155 20 102 55 -32 21 -93
25 -135 8z"/>
<path d="M3280 2945 c-27 -19 -75 -54 -107 -79 -97 -79 -271 -66 -374 27 -82
74 -131 73 -116 -3 36 -178 416 -209 613 -51 131 106 117 194 -16 106z"/>
</g>
</svg>
