<?xml version="1.0" standalone="no"?>
<!DOCTYPE svg PUBLIC "-//W3C//DTD SVG 20010904//EN"
 "http://www.w3.org/TR/2001/REC-SVG-20010904/DTD/svg10.dtd">
<svg version="1.0" xmlns="http://www.w3.org/2000/svg"
 width="398.000000pt" height="398.000000pt" viewBox="0 0 398.000000 398.000000"
 preserveAspectRatio="xMidYMid meet">

<g transform="translate(0.000000,398.000000) scale(0.100000,-0.100000)"
fill="#000000" stroke="none">
<path d="M2053 3186 l-27 -24 39 2 c32 1 41 -3 51 -24 23 -44 3 -50 -83 -25
-158 46 -271 41 -390 -15 -66 -31 -163 -117 -199 -179 -15 -25 -22 -29 -43
-23 -44 11 -117 6 -165 -12 -72 -28 -126 -96 -176 -223 -24 -60 -51 -120 -62
-135 -25 -36 -61 -45 -94 -23 -23 15 -26 22 -21 56 6 44 6 44 -32 25 -51 -27
-68 -113 -33 -171 l19 -30 -33 -43 c-36 -48 -59 -127 -50 -175 5 -31 4 -33
-67 -67 -120 -58 -144 -126 -92 -264 34 -89 23 -116 -47 -116 -50 0 -51 -27
-4 -68 l35 -30 -21 -19 c-28 -24 -58 -91 -58 -129 0 -41 18 -92 45 -129 l23
-31 -29 -32 c-40 -45 -38 -84 10 -176 32 -63 37 -77 25 -87 -8 -6 -14 -26 -14
-44 0 -26 11 -46 51 -89 48 -52 50 -58 41 -86 -11 -30 -7 -36 14 -22 24 16 35
54 29 94 l-7 40 36 -40 37 -41 -17 -32 c-35 -68 2 -146 87 -184 35 -16 54 -45
29 -45 -5 0 -10 -4 -10 -10 0 -15 43 -12 68 6 25 17 29 52 7 80 -17 22 -19 44
-5 44 5 0 29 -14 54 -31 l44 -31 -19 -33 c-24 -40 -17 -77 18 -105 37 -29 126
-28 173 2 l35 23 -35 3 c-53 5 -59 19 -14 37 21 8 52 22 67 30 24 12 29 12 33
1 3 -8 1 -23 -5 -34 -10 -18 -6 -52 5 -52 3 0 17 8 32 19 15 10 40 26 55 35
16 10 30 29 34 46 6 34 10 36 41 14 29 -20 28 -39 -3 -70 -14 -14 -25 -27 -25
-29 0 -3 18 -5 40 -5 49 0 89 19 122 58 l24 29 33 -39 32 -38 -38 -17 c-21 -9
-74 -19 -118 -24 -44 -4 -111 -14 -150 -22 -38 -8 -90 -18 -115 -21 -46 -7
-110 -38 -110 -54 0 -16 47 -31 58 -20 6 6 71 23 146 38 l135 27 52 -93 c55
-100 70 -117 108 -129 l24 -7 -21 33 c-79 128 -110 184 -106 190 2 4 42 17 89
29 l84 23 12 73 c6 41 14 74 16 74 2 0 20 -8 41 -19 111 -56 306 -52 409 9
l32 19 6 -32 c3 -18 9 -52 13 -77 l8 -45 76 -25 c42 -14 80 -28 83 -31 3 -4
-19 -51 -49 -105 -43 -76 -52 -100 -40 -102 24 -6 42 16 95 115 40 74 55 93
72 93 49 -2 261 -48 265 -59 2 -7 13 -6 35 5 l30 16 -24 19 c-27 20 -57 28
-236 60 -112 20 -121 23 -113 40 6 10 10 35 10 56 0 60 12 71 55 50 20 -9 42
-17 49 -17 8 0 19 -6 25 -14 7 -8 28 -22 48 -31 34 -16 35 -19 19 -31 -10 -7
-25 -10 -33 -7 -11 4 -14 1 -11 -8 9 -27 78 -42 136 -29 60 13 84 40 80 89 -2
26 2 35 25 49 27 16 29 16 38 -1 6 -9 28 -26 50 -37 40 -21 47 -37 29 -71 -13
-23 -8 -24 30 -4 40 21 52 47 49 108 l-3 51 48 28 c52 31 66 29 66 -8 0 -16
-10 -30 -30 -43 -16 -10 -27 -21 -23 -24 14 -14 39 -6 71 24 39 36 42 74 10
115 -14 18 -16 24 -5 15 18 -14 24 -2 7 15 -6 6 -3 10 9 11 12 1 25 -11 37
-38 11 -21 22 -39 25 -39 3 0 11 11 19 24 10 20 10 28 -4 47 -24 35 -20 53 24
104 52 61 66 113 46 173 l-15 46 40 38 c36 35 39 43 39 90 0 38 -9 71 -30 117
-17 35 -29 64 -28 65 2 1 22 14 45 30 48 32 73 29 73 -9 0 -31 17 -24 31 12 6
17 6 37 -1 59 -12 36 -62 84 -88 84 -9 0 -26 7 -36 15 -19 14 -19 17 -3 84 10
39 14 83 11 102 -8 45 -48 113 -79 136 -17 12 -30 37 -40 77 -19 73 -43 113
-96 161 l-40 36 35 39 c20 22 38 55 42 75 12 66 -34 165 -77 165 -16 0 -17 -3
-8 -24 13 -29 -10 -81 -41 -91 -47 -15 -70 25 -100 177 -12 62 -57 137 -100
168 -16 11 -54 32 -84 46 l-56 25 15 29 c17 33 20 106 5 115 -5 3 -10 0 -10
-8 0 -24 -28 -39 -69 -39 -51 1 -70 11 -143 79 -69 63 -125 91 -191 95 -42 3
-46 5 -51 33 -10 48 -44 95 -81 111 -53 22 -109 18 -142 -10z m161 -92 c3 -8
2 -12 -4 -9 -6 3 -10 10 -10 16 0 14 7 11 14 -7z m-294 -5 c95 -15 172 -41
160 -53 -6 -6 -28 -9 -50 -7 -59 4 -48 -15 13 -23 72 -8 139 -8 133 2 -2 4 4
8 14 8 13 0 16 -4 10 -12 -15 -17 -1 -24 27 -13 13 5 50 9 81 9 69 0 116 -22
188 -90 57 -54 102 -80 138 -80 14 0 28 -5 32 -12 4 -7 3 -8 -4 -4 -7 4 -12 4
-12 -1 0 -9 -52 -12 -60 -3 -3 3 -20 10 -37 17 l-32 11 17 -23 c9 -13 20 -21
24 -18 4 2 5 -2 2 -10 -6 -16 21 -29 116 -52 35 -9 78 -23 95 -32 30 -15 115
-92 115 -104 0 -3 -23 -9 -51 -12 -28 -4 -56 -10 -63 -16 -6 -5 -20 -11 -31
-13 -16 -4 -12 -8 19 -22 84 -36 146 -103 146 -157 l0 -27 -37 35 c-42 38 -92
66 -138 77 -28 7 -27 6 17 -34 70 -61 91 -101 86 -159 -3 -28 -14 -62 -27 -80
-12 -17 -19 -36 -15 -42 4 -7 3 -9 -4 -5 -15 9 -26 -49 -13 -73 6 -11 22 -28
36 -39 30 -24 32 -38 5 -45 -11 -3 -18 -1 -14 4 3 5 -7 9 -21 9 -109 0 -169
56 -163 153 1 30 6 53 9 51 4 -2 12 9 19 25 16 39 38 46 61 20 25 -29 34 -18
20 23 -14 39 -90 120 -105 111 -6 -3 -8 -3 -5 0 7 9 -62 85 -98 108 l-26 17
44 -3 44 -3 -32 14 c-36 16 -39 29 -22 96 17 64 -11 150 -63 201 -48 46 -65
41 -21 -6 41 -42 57 -100 49 -171 -8 -64 -18 -76 -35 -40 -6 14 -16 22 -21 19
-6 -3 -7 1 -4 9 3 9 2 16 -3 16 -5 0 -14 -19 -20 -42 -7 -24 -21 -53 -33 -65
-23 -25 -69 -30 -88 -11 -8 8 -12 8 -12 1 0 -15 25 -34 34 -25 4 4 6 0 4 -8
-2 -11 4 -14 22 -13 85 9 102 7 111 -10 14 -24 33 -23 20 2 -10 18 -6 31 11
31 4 0 26 -16 47 -36 70 -63 87 -162 40 -240 -19 -31 -66 -60 -78 -48 -3 4 0
9 7 11 6 3 12 9 12 14 0 6 -6 7 -12 3 -8 -4 -10 -3 -5 2 5 5 14 9 20 9 7 0 14
13 15 30 l4 30 -22 -28 c-24 -31 -35 -34 -44 -11 -3 8 -2 12 4 9 5 -3 9 9 8
30 -2 61 -48 92 -161 110 -67 11 -77 32 -77 166 0 65 -4 120 -10 124 -5 3 -7
11 -5 18 3 7 -6 25 -19 41 -20 26 -31 30 -80 33 -31 1 -55 -1 -52 -5 2 -4 -11
-8 -30 -9 -59 -3 -100 -22 -148 -68 -47 -46 -81 -108 -71 -132 2 -8 0 -11 -5
-8 -6 3 -10 2 -10 -4 0 -5 5 -13 10 -16 18 -11 11 -23 -10 -18 -19 5 -36 44
-43 103 -3 23 -5 22 -21 -15 -20 -44 -16 -125 6 -153 12 -14 7 -14 -42 -8 -30
4 -79 18 -108 32 -61 30 -75 26 -40 -9 l25 -25 -76 -4 c-87 -5 -155 -34 -173
-73 -6 -14 -15 -25 -21 -25 -5 0 -6 -7 -3 -16 4 -10 2 -13 -6 -8 -8 5 -9 2 -5
-9 4 -10 2 -17 -4 -17 -6 0 -9 -9 -6 -19 3 -13 1 -18 -9 -14 -31 11 -31 -103
1 -237 20 -90 15 -200 -14 -265 -10 -24 -40 -62 -66 -86 -54 -51 -89 -112 -81
-143 3 -11 28 -45 56 -74 66 -70 81 -124 53 -199 -13 -36 29 9 48 51 l17 39
16 -31 c9 -17 16 -42 16 -55 0 -35 -39 -87 -95 -127 -121 -86 -143 -135 -88
-192 32 -34 17 -36 -43 -7 -48 23 -86 85 -89 148 -2 32 4 42 76 112 64 62 79
81 79 106 0 45 -32 77 -99 102 -85 31 -121 67 -121 123 0 55 19 85 90 143 l24
20 -17 -27 c-10 -16 -13 -28 -8 -28 5 0 13 5 16 10 4 6 28 21 55 35 106 54
127 136 55 215 -47 51 -75 103 -76 139 0 32 -2 34 -12 18 -7 -10 -20 -28 -31
-40 -16 -19 -17 -33 -12 -103 8 -106 -3 -137 -57 -163 -41 -21 -41 -21 -12
-21 17 0 49 11 73 25 l43 25 -3 -27 c-2 -18 -15 -35 -37 -50 -31 -21 -46 -23
-150 -23 -150 0 -166 -9 -157 -86 8 -66 -4 -79 -76 -87 -39 -5 -59 -13 -74
-31 -26 -29 -34 -24 -34 18 0 45 42 100 99 131 51 28 71 57 71 102 0 62 92
142 183 158 l39 8 -42 18 c-87 39 -148 15 -174 -69 -42 -133 -49 -147 -86
-150 -34 -3 -35 -3 -13 13 12 9 27 32 34 53 9 32 7 46 -15 106 -35 93 -34 136
4 174 16 17 51 38 77 47 139 48 167 77 161 163 l-3 47 -40 -39 -39 -38 23 -19
c27 -22 15 -26 -12 -4 -21 15 -17 55 9 106 16 32 77 87 110 99 37 14 29 30
-15 30 -30 0 -42 5 -55 25 -25 38 -19 47 17 25 38 -24 68 -25 107 -5 39 20 67
62 106 162 65 164 120 229 196 227 37 -1 82 -24 47 -24 -21 0 -93 -36 -108
-53 -10 -12 -5 -14 33 -10 24 3 60 0 80 -7 l37 -12 -39 -27 c-20 -16 -53 -31
-72 -35 -49 -9 -97 -40 -120 -78 -21 -35 -25 -48 -12 -48 4 0 15 14 24 30 19
33 106 80 148 80 28 0 104 -32 114 -48 4 -6 -17 -17 -49 -27 -65 -19 -114 -63
-151 -138 l-26 -52 29 30 c15 16 27 33 25 38 -1 5 1 6 6 3 4 -2 27 4 51 15 24
10 49 19 57 19 8 0 14 3 14 8 0 10 67 6 113 -6 44 -12 54 -3 27 25 -10 12 -16
24 -12 29 4 4 0 5 -8 2 -11 -4 -15 2 -17 21 0 14 -6 46 -11 70 -12 55 6 125
44 171 15 17 24 37 20 46 -3 8 -2 13 3 10 5 -3 14 1 21 9 15 18 10 18 -25 5
-14 -5 -23 -15 -20 -20 4 -6 3 -10 -2 -9 -19 3 -33 -2 -33 -12 0 -5 6 -7 13
-3 8 5 7 2 -2 -10 -9 -11 -18 -13 -24 -7 -14 14 37 96 95 153 53 52 131 94
198 107 63 12 86 12 160 0z m247 -55 c-9 -9 -28 6 -21 18 4 6 10 6 17 -1 6 -6
8 -13 4 -17z m28 -326 c19 -22 19 -22 -10 2 -48 40 -51 43 -30 32 11 -6 29
-21 40 -34z m-209 -3 c-1 -8 -5 -17 -8 -21 -5 -4 -4 16 1 34 3 9 9 -1 7 -13z
m139 -55 c3 -5 1 -10 -4 -10 -6 0 -11 5 -11 10 0 6 2 10 4 10 3 0 8 -4 11 -10z
m-165 -34 c0 -2 -8 -10 -17 -17 -16 -13 -17 -12 -4 4 13 16 21 21 21 13z
m-492 -29 c8 -10 6 -13 -11 -14 -12 0 -16 1 -9 4 6 3 10 9 6 14 -8 14 2 11 14
-4z m532 9 c0 -2 -8 -10 -17 -17 -16 -13 -17 -12 -4 4 13 16 21 21 21 13z m75
-6 c-3 -5 -14 -10 -23 -9 -14 0 -13 2 3 9 27 11 27 11 20 0z m-45 -14 c0 -2
-7 -7 -16 -10 -8 -3 -12 -2 -9 4 6 10 25 14 25 6z m847 -50 c0 -8 -6 -12 -15
-9 -11 5 -11 7 0 14 7 5 13 9 14 9 0 0 1 -6 1 -14z m-96 -93 c13 -16 12 -17
-3 -4 -10 7 -18 15 -18 17 0 8 8 3 21 -13z m-599 -19 c19 -4 28 -13 33 -33 12
-56 41 -88 102 -111 83 -31 88 -36 58 -72 -39 -46 -34 -83 20 -135 56 -53 58
-67 8 -56 -21 4 -75 7 -121 6 -98 -2 -175 -32 -180 -70 -4 -28 -4 -28 93 -3
43 11 102 20 131 20 63 0 160 -29 204 -60 31 -22 32 -22 21 -2 -6 11 -28 35
-50 54 -32 28 -38 37 -29 52 8 14 5 25 -12 48 -22 30 -24 69 -3 75 6 2 19 -19
28 -49 34 -103 63 -156 122 -221 89 -98 108 -198 50 -267 -59 -69 -72 -178
-33 -278 19 -50 14 -67 -53 -178 -26 -43 -43 -85 -47 -116 -15 -112 -180 -269
-394 -376 -50 -24 -65 -27 -165 -27 -100 0 -115 2 -165 28 -220 110 -356 245
-434 430 l-29 67 18 54 c23 68 15 102 -49 201 -25 39 -51 92 -58 118 -11 44
-11 54 11 110 64 167 64 166 66 312 2 109 7 154 23 202 36 111 105 199 190
242 29 14 70 20 187 25 83 4 179 11 215 15 62 9 186 6 242 -5z m104 -46 c4 -7
3 -8 -4 -4 -7 4 -12 2 -12 -4 0 -6 -5 -8 -11 -4 -8 4 -7 9 2 15 18 11 17 11
25 -3z m-884 -20 c-21 -21 -13 -32 11 -12 l22 19 -19 -23 c-13 -15 -23 -19
-29 -13 -10 10 7 41 21 41 3 0 1 -5 -6 -12z m1643 -38 c12 0 39 11 59 25 26
17 36 20 36 10 0 -30 -20 -64 -51 -86 -18 -13 -30 -18 -26 -12 4 7 -7 13 -28
17 -23 5 -41 17 -53 34 -9 15 -26 35 -37 44 -13 11 -2 8 29 -7 27 -14 59 -25
71 -25z m-1681 19 c-3 -5 -10 -7 -15 -3 -5 3 -7 10 -3 15 3 5 10 7 15 3 5 -3
7 -10 3 -15z m956 -26 c0 -7 -39 17 -46 28 -3 6 5 3 20 -6 14 -10 26 -19 26
-22z m640 -56 c5 2 7 -3 5 -10 -7 -19 5 -30 73 -62 63 -29 125 -86 141 -128 5
-12 12 -33 16 -45 7 -23 6 -23 -18 -7 -19 12 -44 15 -103 13 l-79 -3 33 -18
c19 -10 40 -16 48 -13 7 3 13 0 11 -6 -1 -6 21 -17 48 -23 28 -7 69 -24 92
-39 77 -51 99 -111 77 -204 -7 -31 -13 -67 -14 -78 0 -32 30 -63 75 -78 21 -8
40 -18 42 -22 3 -11 -87 -54 -113 -54 -23 0 -64 27 -64 41 0 7 12 8 33 4 l32
-7 -27 21 c-42 33 -44 56 -9 103 39 52 42 101 8 123 -13 8 -47 19 -76 25 -71
13 -161 67 -161 95 0 8 16 11 48 9 54 -4 44 1 -67 37 -120 38 -189 114 -183
202 0 9 -3 15 -7 13 -4 -3 -8 5 -8 17 -2 20 -1 20 8 4 14 -24 75 -48 116 -45
26 2 31 5 21 13 -29 21 -59 86 -64 137 l-6 53 31 -35 c18 -19 36 -34 41 -33z
m-1570 47 c0 -8 -19 -13 -24 -6 -3 5 1 9 9 9 8 0 15 -2 15 -3z m1035 -34 c3
-5 -10 -1 -29 11 -20 12 -36 23 -36 25 0 7 58 -25 65 -36z m592 -6 c-3 -3 -12
-4 -19 -1 -8 3 -5 6 6 6 11 1 17 -2 13 -5z m-144 -59 c-3 -9 -8 -14 -10 -11
-3 3 -2 9 2 15 9 16 15 13 8 -4z m-443 1 c0 -2 -8 -10 -17 -17 -16 -13 -17
-12 -4 4 13 16 21 21 21 13z m413 -11 c-3 -9 -8 -14 -10 -11 -3 3 -2 9 2 15 9
16 15 13 8 -4z m-388 -4 c3 -5 2 -12 -3 -15 -5 -3 -9 1 -9 9 0 17 3 19 12 6z
m150 -1 c4 -6 1 -9 -6 -8 -6 2 -14 -3 -17 -11 -3 -9 0 -11 9 -6 8 5 10 4 6 0
-12 -14 -38 -15 -30 -2 9 17 25 37 29 37 1 0 6 -5 9 -10z m-1297 -45 c-3 -3
-9 2 -12 12 -6 14 -5 15 5 6 7 -7 10 -15 7 -18z m1110 0 c-3 -3 -9 2 -12 12
-6 14 -5 15 5 6 7 -7 10 -15 7 -18z m469 8 c0 -8 -4 -10 -12 -3 -7 5 -16 6
-20 2 -5 -4 -5 -2 -2 4 9 15 34 13 34 -3z m-70 -85 c-3 -8 -6 -5 -6 6 -1 11 2
17 5 13 3 -3 4 -12 1 -19z m-214 -79 c7 -1 15 -1 19 -1 3 1 12 -6 20 -16 12
-15 11 -16 -4 -3 -10 7 -18 11 -18 7 0 -7 74 -54 104 -66 15 -5 1 14 -39 53
-76 76 -77 111 0 38 53 -50 59 -53 210 -92 37 -10 63 -26 99 -62 46 -47 48
-50 43 -92 -7 -44 -35 -115 -48 -115 -3 0 -9 26 -11 57 -4 48 -10 61 -37 85
-18 16 -34 28 -36 26 -1 -2 2 -30 8 -64 17 -102 -9 -152 -112 -219 -86 -55
-105 -86 -99 -167 2 -32 1 -58 -2 -58 -11 0 -36 32 -54 67 -35 69 -18 138 60
239 55 72 56 75 52 125 -6 63 -27 91 -109 150 -50 35 -70 58 -90 100 -45 91
-46 110 -5 57 20 -27 42 -49 49 -49z m284 -24 c0 -8 -4 -12 -9 -9 -5 3 -6 10
-3 15 9 13 12 11 12 -6z m250 -247 c16 -36 19 -38 30 -22 7 10 13 27 13 38 1
20 1 20 20 -3 26 -31 26 -95 -1 -146 -32 -62 -41 -66 -33 -16 l7 45 -36 -37
c-32 -32 -111 -66 -123 -54 -2 2 8 31 23 63 21 45 28 76 29 129 1 39 2 74 3
79 2 18 51 -38 68 -76z m-2203 -136 c-21 -41 -18 -128 7 -180 18 -36 32 -49
71 -66 44 -20 47 -23 35 -40 -9 -12 -31 -20 -65 -24 -69 -6 -95 2 -137 44 -20
20 -39 34 -41 31 -6 -6 32 -85 53 -109 18 -20 11 -33 -25 -52 -53 -28 -119
-24 -154 9 -15 14 -30 25 -34 25 -12 0 5 -102 21 -126 18 -29 19 -39 3 -39
-19 -1 -53 41 -82 101 -34 69 -33 87 7 121 23 19 38 44 47 75 16 59 34 78 37
38 1 -16 10 -45 20 -65 l18 -35 1 58 c0 62 19 108 62 155 35 37 45 34 38 -10
-4 -21 -2 -45 4 -53 8 -12 10 -9 10 13 0 43 27 96 66 133 41 39 59 37 38 -4z
m2100 -132 c44 -21 88 -46 97 -56 30 -34 60 -105 66 -153 6 -57 -9 -74 -27
-30 l-13 30 -29 -51 c-29 -52 -57 -70 -106 -70 l-26 0 22 20 c40 37 25 66 -43
86 -62 17 -110 47 -138 86 -24 33 -34 120 -17 162 l11 30 29 -36 c17 -20 60
-53 97 -73 38 -20 78 -46 91 -58 12 -11 22 -17 22 -13 0 22 -37 65 -75 89 -51
30 -80 69 -70 94 6 17 7 17 17 -1 6 -10 47 -35 92 -56z m-2402 -12 c-7 -7 -12
-8 -12 -2 0 14 12 26 19 19 2 -3 -1 -11 -7 -17z m2615 -47 c23 -16 44 -28 47
-25 3 2 4 1 2 -2 -2 -3 7 -22 20 -41 25 -38 31 -91 14 -124 -15 -28 -30 -23
-30 9 0 17 -17 52 -42 88 -44 64 -74 124 -60 124 5 0 27 -13 49 -29z m13 -187
c0 -21 -4 -34 -11 -32 -6 2 -10 7 -10 11 1 4 1 21 1 38 0 17 4 28 10 24 6 -3
10 -22 10 -41z m-2213 -13 c-43 -48 -61 -100 -53 -153 6 -38 5 -39 -16 -33
-13 4 -23 8 -24 9 -25 39 -34 48 -34 36 0 -9 11 -32 25 -52 14 -20 25 -43 25
-50 0 -7 -14 -40 -30 -73 -16 -33 -30 -67 -30 -76 0 -8 -6 -21 -12 -28 -11
-11 -10 -12 2 -6 13 8 13 7 1 -8 -14 -18 -36 -24 -26 -7 3 6 -1 10 -10 10 -22
0 -38 -46 -24 -71 9 -19 9 -19 -10 -10 -27 15 -51 51 -51 77 0 24 36 74 53 74
12 0 57 40 57 51 0 3 -16 19 -36 34 l-36 27 22 -41 21 -42 -38 16 c-20 9 -45
23 -55 32 -24 21 -41 79 -33 111 13 55 86 142 119 142 2 0 1 -22 -2 -49 -2
-27 1 -57 7 -67 10 -18 10 -18 11 1 1 42 22 97 52 130 31 36 69 53 127 54 l33
1 -35 -39z m1753 1 c0 -20 -45 -87 -74 -111 -28 -24 -46 -67 -46 -113 l1 -43
16 30 c15 27 34 47 57 56 4 2 9 -36 10 -86 2 -92 19 -146 44 -137 7 2 10 -2 7
-11 -3 -7 3 -25 14 -38 11 -13 20 -19 21 -12 0 6 -7 19 -16 28 -9 9 -13 19
-10 23 4 3 11 0 16 -8 6 -8 10 -11 10 -6 0 6 5 5 11 -1 8 -8 6 -19 -4 -40 -20
-38 -43 -58 -52 -43 -3 6 -11 8 -16 4 -5 -3 -7 -9 -4 -14 3 -5 -5 -14 -17 -21
-21 -11 -22 -11 -9 4 18 22 3 22 -21 0 -15 -13 -21 -14 -31 -4 -9 10 -8 11 8
6 19 -6 19 -6 2 5 -24 15 -31 7 -17 -19 6 -12 7 -21 1 -21 -5 0 -11 6 -14 13
-3 8 -7 5 -12 -7 -9 -21 18 -48 40 -40 21 8 43 -40 24 -52 -5 -3 -8 0 -7 8 2
7 -2 12 -8 11 -7 -1 -20 7 -29 17 -10 11 -24 20 -30 20 -7 0 -24 10 -39 21
-23 18 -26 26 -21 53 4 17 18 51 32 75 l26 45 18 -23 c11 -13 19 -36 19 -52 0
-38 23 -47 63 -25 24 12 26 15 8 10 -20 -5 -23 -3 -17 11 5 15 4 16 -9 5 -13
-10 -13 -15 -3 -21 8 -5 5 -8 -9 -6 -21 1 -22 3 -7 25 12 18 13 26 3 38 -18
22 -8 22 31 3 19 -10 29 -18 23 -19 -7 0 -13 -5 -13 -11 0 -6 7 -9 15 -5 9 3
15 -1 15 -11 0 -12 3 -13 14 -3 23 18 10 33 -53 63 -32 16 -71 43 -87 60 l-29
32 30 -25 30 -25 -30 35 c-16 19 -32 37 -34 40 -2 3 -1 -3 2 -13 12 -31 -16
-14 -47 30 -51 73 -43 169 17 213 24 17 168 97 180 99 4 0 7 -7 7 -17z m421
-59 c13 -16 12 -17 -3 -4 -10 7 -18 15 -18 17 0 8 8 3 21 -13z m-281 -49 c-16
-41 -12 -77 15 -129 13 -27 22 -52 19 -57 -12 -19 -63 -8 -83 18 -12 15 -21
22 -21 16 0 -6 14 -26 30 -44 33 -36 21 -51 -22 -27 -13 8 -27 12 -31 11 -5
-1 -6 2 -2 8 3 5 2 10 -3 10 -15 0 -47 81 -47 122 0 49 27 76 85 87 71 14 71
14 60 -15z m263 8 c15 -10 34 -27 42 -38 14 -19 14 -19 15 1 0 12 -6 28 -12
35 -9 10 -7 10 5 0 45 -40 38 -116 -17 -169 -30 -29 -43 -27 -24 4 12 20 -10
98 -41 141 -25 36 -28 44 -13 44 9 0 29 -8 45 -18z m-1874 -48 c26 -69 27
-110 2 -148 -21 -31 -100 -90 -110 -81 -11 12 -9 35 4 35 30 0 40 77 13 101
-10 9 -21 30 -24 46 -5 24 0 35 31 66 20 20 43 37 50 37 7 0 22 -25 34 -56z
m1741 30 c0 -8 -19 -13 -24 -6 -3 5 1 9 9 9 8 0 15 -2 15 -3z m116 -87 c15
-27 15 -65 0 -99 -6 -14 -12 -15 -28 -7 -11 6 -17 13 -15 16 3 2 -11 21 -32
41 -38 38 -45 68 -21 97 7 8 9 15 4 16 -5 0 0 4 11 9 22 9 52 -18 81 -73z
m-2532 26 c4 -10 4 -14 0 -10 -4 4 -13 -5 -20 -20 -10 -24 -13 -26 -19 -10 -5
11 -1 25 10 37 22 24 21 24 29 3z m2361 -19 c11 -17 35 -47 52 -68 37 -41 46
-68 41 -117 -3 -34 -7 -38 -106 -98 -29 -17 -38 -28 -35 -42 3 -11 0 -19 -6
-19 -6 0 -11 5 -11 11 0 5 -4 8 -9 4 -5 -3 -13 -1 -16 5 -4 6 -3 9 2 8 11 -3
65 33 59 39 -7 7 -76 -37 -76 -47 0 -5 6 -12 13 -17 12 -7 16 -9 36 -12 5 0
12 -9 15 -18 6 -15 4 -15 -14 2 -11 10 -20 14 -20 10 0 -5 -11 2 -25 15 -19
17 -22 27 -15 41 6 10 10 27 10 38 0 12 5 21 10 21 6 0 10 6 10 13 0 7 7 22
15 33 14 18 15 17 5 -8 -8 -25 -8 -26 13 -18 12 4 21 13 20 19 -2 6 2 10 9 8
24 -5 32 49 15 105 -31 103 -36 127 -23 125 6 -1 20 -16 31 -33z m-2325 13 c0
-2 -10 -12 -22 -23 l-23 -19 19 23 c18 21 26 27 26 19z m321 -127 c2 -45 26
-107 36 -96 3 3 12 -2 19 -12 11 -14 10 -8 0 28 -11 38 -11 51 -1 75 7 17 14
24 14 17 1 -7 5 -10 11 -7 6 3 7 -1 4 -10 -7 -18 7 -37 48 -66 l28 -21 -12 27
c-8 18 -14 22 -20 13 -6 -10 -8 -8 -8 5 0 9 -5 17 -12 17 -6 0 -9 2 -6 5 8 8
58 -16 53 -25 -3 -4 9 -27 25 -51 53 -79 52 -143 -3 -155 -44 -9 -98 -35 -122
-58 -11 -10 -14 -15 -6 -11 9 5 12 4 7 -3 -3 -6 2 -13 11 -15 13 -3 13 -5 3
-6 -8 0 -24 6 -34 14 -18 13 -18 16 -3 39 9 14 37 34 62 45 49 22 58 46 27 74
-14 13 -21 14 -30 5 -7 -7 -12 -8 -12 -2 0 16 -28 13 -35 -3 -3 -10 0 -13 13
-9 24 8 50 -9 28 -17 -9 -4 -16 -2 -16 3 0 5 -6 7 -14 4 -15 -6 -49 23 -42 35
3 4 -6 20 -19 37 -24 28 -25 29 -21 5 1 -14 9 -27 17 -30 8 -3 15 -12 17 -20
3 -12 0 -12 -15 -1 -60 46 -66 85 -25 164 15 30 28 53 29 52 1 -1 3 -22 4 -46z
m123 2 c3 -5 -1 -9 -9 -9 -8 0 -12 4 -9 9 3 4 7 8 9 8 2 0 6 -4 9 -8z m1393
-7 c0 -8 -4 -12 -9 -9 -5 3 -6 10 -3 15 9 13 12 11 12 -6z m-1342 -25 c3 -6
-1 -7 -9 -4 -18 7 -21 14 -7 14 6 0 13 -4 16 -10z m205 -13 c0 -7 -4 -6 -10 3
-9 13 -14 7 -11 -12 0 -5 -3 -8 -9 -8 -13 0 -13 13 2 28 13 13 28 7 28 -11z
m1120 19 c0 -2 -8 -10 -17 -17 -16 -13 -17 -12 -4 4 13 16 21 21 21 13z m362
-11 c2 3 5 -2 5 -10 0 -19 0 -19 -23 7 -12 14 -13 18 -3 10 9 -6 18 -10 21 -7z
m-1417 -4 c3 -5 2 -12 -3 -15 -5 -3 -9 1 -9 9 0 17 3 19 12 6z m1132 -72 c-21
-36 -37 -50 -37 -31 0 5 3 12 8 16 4 4 7 13 7 19 1 7 6 11 12 10 14 -3 25 25
13 32 -6 4 -10 2 -10 -3 0 -6 -8 -13 -17 -16 -16 -6 -16 -6 0 12 9 10 14 23
10 28 -5 5 2 0 14 -10 l22 -18 -22 -39z m-1019 -64 c-1 -13 -6 -21 -11 -18 -5
3 -6 -4 -3 -15 4 -12 2 -23 -5 -28 -9 -5 -10 -2 -6 9 3 10 2 17 -3 17 -5 0 -8
6 -6 13 1 6 1 9 -1 5 -3 -5 -9 -8 -14 -8 -6 0 -7 6 -3 13 5 9 4 9 -6 0 -7 -6
-20 -9 -29 -6 -11 4 -9 -1 7 -16 33 -32 27 -36 -11 -7 -19 15 -39 26 -45 26
-17 0 -61 58 -58 77 2 10 11 19 22 20 18 3 18 2 -1 -6 -14 -7 -15 -10 -5 -10
13 -1 13 -2 0 -11 -13 -8 -13 -10 1 -10 9 0 22 13 29 29 18 44 39 42 97 -7 38
-32 52 -50 51 -67z m925 92 c4 3 7 1 7 -5 0 -7 -7 -12 -16 -12 -8 0 -12 -4 -9
-10 11 -17 -5 -32 -21 -19 -10 8 -14 8 -14 0 0 -6 5 -11 10 -11 6 0 10 -5 10
-11 0 -8 -5 -7 -16 2 -31 25 -75 20 -53 -7 10 -13 6 -18 -13 -15 -10 1 -10
-11 1 -27 7 -11 9 -11 14 2 4 9 12 15 18 14 6 -2 14 3 17 11 3 9 0 11 -8 6 -9
-6 -11 -4 -5 4 5 8 11 9 17 3 12 -12 -19 -65 -33 -56 -8 5 -14 -17 -10 -38 3
-20 -18 -5 -27 20 -21 53 -19 62 43 117 49 44 62 51 71 40 6 -8 14 -12 17 -8z
m341 7 c3 -8 2 -12 -4 -9 -6 3 -10 10 -10 16 0 14 7 11 14 -7z m79 8 c-8 -5
-9 -13 -3 -22 8 -13 10 -13 10 -1 0 8 2 12 5 9 3 -3 2 -13 -1 -23 -6 -15 -8
-15 -20 6 -13 25 -10 39 9 39 9 0 9 -2 0 -8z m-1563 -8 c0 -8 -19 -13 -24 -6
-3 5 1 9 9 9 8 0 15 -2 15 -3z m39 3 c-2 -1 -13 -9 -24 -17 -19 -14 -19 -14
-6 3 7 9 18 17 24 17 6 0 8 -1 6 -3z m-76 -22 c4 -8 1 -17 -4 -21 -6 -3 -8
-17 -5 -30 5 -18 3 -22 -8 -18 -8 3 -16 15 -19 26 -3 11 -3 17 0 14 4 -3 12
-1 20 5 10 9 10 15 2 25 -7 9 -8 14 -1 14 5 0 12 -7 15 -15z m1227 -25 c0 -16
-5 -32 -11 -36 -8 -4 -7 -9 2 -15 8 -5 17 -3 21 4 6 9 8 9 8 0 0 -6 -4 -14
-10 -18 -5 -3 -7 -12 -3 -20 6 -17 -14 -20 -37 -5 -13 9 -13 10 0 10 13 0 13
2 0 9 -8 6 -18 7 -23 4 -5 -3 -4 4 3 16 6 12 16 18 22 15 8 -5 9 4 5 29 -3 19
-3 38 0 41 11 11 23 -6 23 -34z m-1192 -9 c-13 -21 -39 -24 -31 -4 3 7 10 10
16 6 6 -4 8 0 4 10 -4 11 -2 14 8 11 11 -5 11 -10 3 -23z m1142 -20 c0 -6 -4
-13 -10 -16 -5 -3 -10 1 -10 9 0 9 5 16 10 16 6 0 10 -4 10 -9z m-1170 -52
l-25 -19 25 3 c19 1 25 -3 26 -21 1 -12 -2 -25 -6 -27 -8 -5 -45 44 -45 60 0
6 -5 16 -9 24 -7 11 -5 13 7 8 9 -3 19 -1 23 4 4 7 10 7 18 -1 8 -8 5 -16 -14
-31z m345 -9 c3 -6 -1 -7 -9 -4 -18 7 -21 14 -7 14 6 0 13 -4 16 -10z m-135
-10 c0 -5 -2 -10 -4 -10 -3 0 -8 5 -11 10 -3 6 -1 10 4 10 6 0 11 -4 11 -10z
m136 -36 c1 -9 -1 -13 -4 -9 -4 4 -7 10 -7 13 0 4 -4 14 -9 22 -7 12 -6 13 4
3 8 -7 15 -20 16 -29z m736 -109 c13 -16 9 -25 -10 -25 -27 0 -112 31 -112 40
0 5 8 22 17 39 l18 30 40 -37 c22 -20 43 -41 47 -47z"/>
<path d="M2005 2901 l40 -6 -63 -23 c-44 -17 -78 -39 -117 -77 -30 -29 -55
-59 -55 -66 0 -7 21 8 48 33 26 26 72 59 102 75 48 24 66 28 140 28 69 0 93
-5 128 -23 51 -27 57 -13 7 17 -50 29 -143 51 -211 50 -54 -2 -56 -2 -19 -8z"/>
<path d="M1704 2886 c-76 -34 -145 -154 -129 -228 9 -41 65 -148 78 -148 5 0
6 8 1 18 -13 31 -16 158 -4 215 10 49 18 63 66 107 57 51 53 64 -12 36z"/>
<path d="M1035 2413 c-30 -16 -54 -41 -55 -56 0 -4 9 -2 19 5 11 7 17 16 14
22 -3 5 -1 6 5 2 11 -7 60 29 51 38 -2 2 -17 -3 -34 -11z"/>
<path d="M1081 2326 c-7 -21 -13 -73 -13 -115 1 -48 -4 -87 -13 -104 -7 -15
-10 -27 -6 -27 16 0 68 57 80 87 12 29 11 39 -7 85 -12 29 -23 67 -24 83 l-3
30 -14 -39z"/>
<path d="M956 2194 c-9 -23 -8 -26 7 -18 6 4 -13 -18 -43 -47 -36 -35 -64 -55
-82 -56 -33 -3 -128 -42 -128 -54 0 -4 19 -2 43 5 24 7 51 9 62 5 11 -4 42 -8
69 -8 42 -1 52 3 82 33 38 38 44 74 18 124 -18 37 -20 38 -28 16z"/>
<path d="M1528 2006 c-26 -7 -55 -19 -65 -26 -34 -26 -83 -74 -83 -82 0 -4 15
1 33 11 46 28 133 51 186 51 41 0 121 -14 204 -35 23 -6 27 -4 27 14 0 59
-182 99 -302 67z"/>
<path d="M1540 1783 c-21 -4 -156 -60 -170 -70 -2 -2 2 -8 10 -13 12 -7 8 -11
-17 -16 l-32 -6 30 -44 c47 -69 55 -71 234 -77 160 -5 160 -5 202 21 24 15 43
30 43 33 0 21 -88 123 -125 145 -44 25 -122 38 -175 27z m151 -72 c24 -16 60
-42 79 -59 l35 -31 -23 -23 c-21 -22 -27 -22 -170 -20 -156 4 -184 11 -197 53
-8 26 12 45 89 84 69 35 129 34 187 -4z"/>
<path d="M1617 1699 c-5 -17 -11 -20 -31 -15 -21 5 -26 3 -26 -13 0 -41 59
-68 88 -39 23 23 9 88 -19 88 -4 0 -9 -10 -12 -21z"/>
<path d="M2270 1781 c-69 -22 -132 -78 -169 -148 -11 -23 -15 -51 -5 -41 3 4
21 -4 40 -17 33 -23 40 -23 187 -19 83 3 162 7 174 10 20 4 93 86 93 104 0 4
-12 11 -26 14 -20 5 -24 10 -16 18 9 9 -8 20 -64 45 -79 35 -169 49 -214 34z
m156 -66 c27 -14 60 -33 73 -43 22 -18 23 -20 7 -50 -9 -17 -24 -33 -33 -36
-10 -3 -82 -6 -160 -8 -136 -2 -144 -2 -165 19 -21 22 -21 23 -3 43 11 12 46
39 78 61 73 48 127 52 203 14z"/>
<path d="M2321 1698 c-8 -12 -19 -18 -31 -15 -25 6 -32 -16 -14 -42 24 -34 73
-26 87 13 16 43 -20 80 -42 44z"/>
<path d="M2042 1468 c2 -38 10 -74 17 -80 10 -11 11 0 6 57 -10 94 -28 113
-23 23z"/>
<path d="M1827 1317 c-21 -52 -1 -87 48 -87 19 0 39 -8 50 -20 10 -11 26 -20
35 -20 10 0 29 9 43 20 14 11 38 20 54 20 16 0 34 5 41 12 16 16 15 63 0 76
-10 8 -13 2 -13 -26 0 -35 -2 -37 -32 -37 -17 0 -45 -10 -61 -22 -30 -22 -30
-22 -53 -3 -23 21 -29 23 -69 24 -21 1 -26 7 -30 41 -4 30 -7 35 -13 22z"/>
<path d="M1617 1104 c-12 -13 -8 -34 8 -34 8 0 15 -4 15 -9 0 -4 16 -29 35
-54 46 -60 118 -95 219 -106 158 -18 293 20 357 99 19 23 45 53 57 66 29 28
20 48 -17 40 -134 -29 -193 -35 -311 -36 -117 0 -229 12 -330 36 -14 3 -29 2
-33 -2z m169 -59 c145 -22 289 -18 438 10 l39 8 -29 -37 c-16 -20 -54 -49 -84
-64 -51 -25 -64 -27 -180 -27 -109 0 -131 3 -175 23 -52 24 -90 54 -106 85 -5
9 -8 17 -6 17 2 0 48 -7 103 -15z"/>
<path d="M2819 683 c-13 -16 -12 -17 4 -4 16 13 21 21 13 21 -2 0 -10 -8 -17
-17z"/>
<path d="M2710 562 c0 -5 7 -9 15 -9 8 0 12 4 9 9 -3 4 -9 8 -15 8 -5 0 -9 -4
-9 -8z"/>
<path d="M1041 704 c0 -11 3 -14 6 -6 3 7 2 16 -1 19 -3 4 -6 -2 -5 -13z"/>
<path d="M1443 781 c-56 -64 -53 -58 -34 -75 27 -24 63 -25 67 -1 3 20 3 20
-12 1 -14 -20 -14 -20 -14 0 0 11 6 28 13 38 13 17 16 17 43 3 19 -11 23 -16
12 -17 -9 0 -20 5 -23 10 -3 6 -11 10 -18 10 -6 0 0 -11 15 -24 23 -23 74 -33
62 -14 -3 5 -10 6 -15 2 -6 -3 -9 0 -7 8 2 8 -14 29 -34 47 l-37 32 -18 -20z
m10 -17 c-7 -3 -9 -12 -6 -20 3 -8 -1 -14 -11 -14 -9 0 -16 -5 -16 -11 0 -5 5
-7 12 -3 7 5 8 3 3 -5 -5 -10 -10 -10 -19 -1 -8 8 -6 15 8 26 11 8 16 14 12
14 -4 0 -4 5 -1 10 3 6 12 10 18 9 9 0 9 -2 0 -5z"/>
<path d="M1491 694 c0 -11 3 -14 6 -6 3 7 2 16 -1 19 -3 4 -6 -2 -5 -13z"/>
<path d="M2447 782 c-21 -23 -21 -27 1 -29 12 -1 18 6 20 23 2 29 0 29 -21 6z"/>
<path d="M2359 703 c-12 -16 -12 -17 2 -6 9 7 20 9 24 5 5 -4 5 -1 1 6 -9 16
-11 15 -27 -5z"/>
<path d="M2361 675 c1 -19 18 -51 18 -35 0 8 -4 22 -9 30 -5 8 -9 11 -9 5z"/>
<path d="M2510 690 c8 -5 20 -10 25 -10 6 0 3 5 -5 10 -8 5 -19 10 -25 10 -5
0 -3 -5 5 -10z"/>
<path d="M1315 690 c-3 -5 -1 -10 4 -10 6 0 11 5 11 10 0 6 -2 10 -4 10 -3 0
-8 -4 -11 -10z"/>
<path d="M1320 640 c0 -5 5 -10 10 -10 6 0 10 5 10 10 0 6 -4 10 -10 10 -5 0
-10 -4 -10 -10z"/>
</g>
</svg>
